<?xml version="1.0" standalone="no"?><!DOCTYPE svg PUBLIC "-//W3C//DTD SVG 1.1//EN" "http://www.w3.org/Graphics/SVG/1.1/DTD/svg11.dtd"><svg t="1581757818567" class="icon" viewBox="0 0 1024 1024" version="1.1" xmlns="http://www.w3.org/2000/svg" p-id="14602" xmlns:xlink="http://www.w3.org/1999/xlink" width="144" height="144"><defs><style type="text/css"></style></defs><path d="M1015.264 810.192c-10.704-33.376-35.872-53.568-65.888-68.256-20.8-10.208-42.976-17.568-63.904-27.52-16.944-8.096-33.504-17.312-48.816-28.032-6.608-4.608-12.336-14.192-13.456-22.176-2.496-16.432-1.744-33.376-1.872-50.064 0-2.736 1.248-6.224 3.12-8.352 15.568-16.688 22.672-37.232 28.032-58.784 0.864-3.232 3.488-7.104 6.464-8.72 17.568-9.968 25.792-44.096 13.2-59.904-4.112-5.232-4.112-9.456-2.48-15.072 8.96-30.272 13.072-60.912 10.576-92.544-2.864-36.24-23.168-61.04-57.92-69.248-2.992-0.752-5.728-3.248-8.48-4.848-8.336-5.104-16.064-13.2-25.024-14.816-17.44-3.248-35.616-5.232-53.184-3.856-65.264 4.976-103.136 39.984-105.632 109.104-0.864 26.528 3.744 52.32 9.216 78.096 0.736 3.744-0.384 9.088-2.624 12.208-12.08 16.688-4.976 50.816 12.832 61.04 2.736 1.616 5.728 4.848 6.464 7.728 5.232 22.288 12.832 43.216 29.024 60.288 1.744 1.744 2.736 4.992 2.624 7.472-0.24 20.048-0.88 39.984-1.376 61.904 4.608 1.744 11.456 3.744 17.808 6.608 17.44 7.728 35.744 14.192 51.824 24.288 17.808 11.088 27.52 28.272 26.896 50.816-0.624 24.16 0.992 48.32 1.12 72.496 0 7.968 2.24 10.464 10.592 10.464 72.24-0.368 144.48-0.24 216.608-0.112 3.744 0 7.344 0.368 11.088 0.624 0-0.624 0-1.248 0-1.872C1020 829.248 1018.24 819.408 1015.264 810.192L1015.264 810.192zM761.68 761.744c0.624-23.296-10.096-37.36-28.656-47.696-7.344-4-15.072-7.232-22.784-10.224-26.16-10.336-52.432-20.432-78.592-30.88-29.024-11.456-57.296-25.408-87.184-34.016-21.424-6.224-35.616-16.8-43.968-36.608-1.872-4.24-4.608-8.096-6.096-12.448-2.496-7.472-6.848-11.216-15.072-12.08-11.456-1.232-12.704-4.24-8.224-15.072 0.992-2.608 2.128-5.36 3.984-7.232 12.944-12.944 17.072-28.64 16.944-46.448-0.128-15.936 4.992-29.648 21.792-36.496 4.496-1.856 8.976-7.344 10.592-12.208 10.464-29.648 17.184-59.664-0.24-89.424-1.616-2.864-3.12-6.48-2.992-9.584 0.752-21.296 1.376-42.592 2.992-63.776 2.112-27.904 0.624-54.928-13.584-80.096-4.976-8.72-11.952-13.2-22.048-14.688-6.848-0.992-14.576-3.744-19.808-8.224-25.776-22.176-55.92-27.904-88.304-25.904-29.392 1.744-56.544 12.336-83.696 22.8-28.032 10.72-46.336 30.272-55.056 58.672-8.592 27.904-7.232 56.288-2.992 84.576 2.624 17.44 8.224 34.624-3.744 50.816-0.864 1.12-0.992 2.992-0.752 4.48 2.992 22.288 5.36 44.72 9.584 66.768 2.112 11.2 9.712 18.928 22.176 20.928 2.736 0.368 6.592 4.736 6.976 7.6 2 15.072 2.112 30.272 4.608 45.216 1.232 7.472 5.36 14.704 8.96 21.68 2.608 5.104 7.104 9.344 9.84 14.448 3.104 5.472 2.864 10.208-5.36 10.832-6.112 0.496-9.216 4.48-11.952 9.968-5.36 11.088-11.456 21.92-17.696 32.624-4.736 8.096-11.696 12.832-21.168 15.072-11.088 2.496-22.048 5.968-32.64 10.208-50.32 20.064-100.512 40.24-150.592 60.784-9.088 3.744-18.064 8.352-26.16 13.824-13.2 8.976-20.176 21.168-20.048 38.24 0.256 33.76-1.248 67.504-2.112 101.264 110.352 0 220.832 0 331.184 0 3.232-23.168 6.352-46.464 9.712-69.632 4.48-30.256 9.216-60.416 13.456-90.8 0.368-3.104-0.992-6.592-2.368-9.584-4.352-9.584-8.592-19.184-13.712-28.4-3.856-6.976-2.24-10.704 4.992-13.072 3.248-0.992 6.592-2.368 9.088-4.48 26.016-20.688 47.696-7.36 70 9.456-5.488 11.216-11.712 22.544-16.688 34.512-2.128 5.36-3.36 12.08-2.128 17.568 11.344 50.32 23.296 100.512 35.136 150.704 0.256 1.12 0.256 2.368 0.384 3.616 105.376 0 210.864 0 316.24 0C762.8 826.752 760.8 794.24 761.68 761.744L761.68 761.744z" p-id="14603"></path></svg>